# xmcd
#
# Track frame offsets: 
#        150
#        19311
#        41027
#        56623
#        73550
#        96866
#        112681
#        134145
#        148545
#        160103
#        175057
#
# Disc length: 2561 seconds
#
# Revision: 0
# Processed by: cddbd v1.5.2PL0 Copyright (c) Steve Scherf et al.
# Submitted via: ExactAudioCopyFreeDBPlugin 1.0
#
DISCID=9609ff0b
DTITLE=Stacy Jones - Love Is Everywhere
DYEAR=1900
DGENRE=Blues
TTITLE0=Mojo Potion
TTITLE1=Wait For Heaven
TTITLE2=Can't Find Love
TTITLE3=Stomp Jump Boogie
TTITLE4=Can't You Be Mine
TTITLE5=I Fell In Love
TTITLE6=Love Is Everywhere
TTITLE7=One Stoplight
TTITLE8=Gotta Get Over You
TTITLE9=Tough Girls Never Cry
TTITLE10=On My Wa
EXTD=
EXTT0=
EXTT1=
EXTT2=
EXTT3=
EXTT4=
EXTT5=
EXTT6=
EXTT7=
EXTT8=
EXTT9=
EXTT10=
PLAYORDER=
